<svg xmlns="http://www.w3.org/2000/svg" width="551" height="301.491" viewBox="0 0 551 301.491">
  <path id="Path_916" data-name="Path 916" d="M548.4,301.491H2.6a2.574,2.574,0,0,1-2.6-2.6V2.6A2.574,2.574,0,0,1,2.6,0H548.4A2.574,2.574,0,0,1,551,2.6V298.892A2.574,2.574,0,0,1,548.4,301.491Z" fill="#282f75"/>
  <g id="Group_888" data-name="Group 888" transform="translate(118.829 24.691)">
    <g id="Group_877" data-name="Group 877" transform="translate(136.502 114.96)">
      <path id="Path_917" data-name="Path 917" d="M698.3,405.7l15.075,71.214h3.483L704.278,405.7Z" transform="translate(-590.647 -334.463)" fill="#d0d1d0"/>
      <path id="Path_918" data-name="Path 918" d="M625.169,406.96l-16.686,70.434H605L620.179,406.7Z" transform="translate(-545.846 -334.944)" fill="#d0d1d0"/>
      <path id="Path_919" data-name="Path 919" d="M659.165,268.679s18.089-1.04,16.27,19.909-2.859,42.157-9.565,49.382-74.489,7.485-80.155,1.559,10.864-5.666,13.983-5.666,22.248,1.819,28.434-14.5c6.238-16.27,4.678-51.721,31.033-50.682" transform="translate(-536.022 -268.657)" fill="#e4e5e5"/>
      <path id="Path_920" data-name="Path 920" d="M660.51,268.8s13.827,2.859,12.527,17.31c-1.3,14.5-4.938,39.818-11.644,46.263s-33.06,7.849-47.3,6.965c-16.53-1.04-26.978-4.21-26.978-4.21s-3.015,1.923-2.079,3.171,8.993,6.29,48.083,5.458c39.142-.832,36.387-6.6,38-12.891s5.042-39.922,4.574-47.3c-.52-7.381-4.21-13.463-15.178-14.763" transform="translate(-536.171 -268.726)" fill="#d0d1d0"/>
      <path id="Path_921" data-name="Path 921" d="M708.5,321.223a1.552,1.552,0,1,0,1.507-1.923,1.769,1.769,0,0,0-1.507,1.923" transform="translate(-595.545 -292.975)" fill="#dadada"/>
      <path id="Path_922" data-name="Path 922" d="M709.7,306.7a13.659,13.659,0,0,0-.52,2.807,6.582,6.582,0,0,0,.676,2.963,5.538,5.538,0,0,0,.988,1.455,4.646,4.646,0,0,1,.676.728,1.511,1.511,0,0,1,.26,1.144,10.689,10.689,0,0,1-.78,1.871,6.844,6.844,0,0,0-.208,1.767,6.177,6.177,0,0,0,.78,2.911,8.94,8.94,0,0,0,1.767,2.235,3.363,3.363,0,0,1-.676-.416,5.284,5.284,0,0,1-1.4-1.663,6.671,6.671,0,0,1-.936-3.067,6.234,6.234,0,0,1,.208-1.923,13.277,13.277,0,0,0,.728-1.819c.156-.572-.312-.988-.78-1.455a6.076,6.076,0,0,1-1.04-1.611,5.992,5.992,0,0,1-.572-3.171,5.86,5.86,0,0,1,.468-2.079c.156-.468.312-.676.364-.676" transform="translate(-595.709 -286.925)" fill="#dadada"/>
      <path id="Path_923" data-name="Path 923" d="M702.451,318.2c.1,0,0,.468.208,1.092a3.778,3.778,0,0,0,1.508,2.027,5.844,5.844,0,0,0,2.443.884c.676.1,1.144.1,1.144.208a2.368,2.368,0,0,1-1.144.156,4.621,4.621,0,0,1-2.7-.832,3.842,3.842,0,0,1-1.559-2.391c-.156-.728.052-1.144.1-1.144" transform="translate(-592.563 -292.447)" fill="#dadada"/>
      <path id="Path_924" data-name="Path 924" d="M784.362,448.535h2.7L782.8,345.3l-2.7.156Z" transform="translate(-629.927 -305.46)" fill="#d0d1d0"/>
      <path id="Path_925" data-name="Path 925" d="M500,448.735l2.7.208L507.8,345.656l-2.7-.156Z" transform="translate(-495.426 -305.556)" fill="#d0d1d0"/>
      <path id="Path_926" data-name="Path 926" d="M548.3,450.707l2.7.156,4.938-102.507-2.7-.156Z" transform="translate(-518.619 -306.853)" fill="#d0d1d0"/>
      <path id="Path_927" data-name="Path 927" d="M816.814,448.631h2.7L815.2,345.5l-2.7.1Z" transform="translate(-645.485 -305.556)" fill="#d0d1d0"/>
      <rect id="Rectangle_632" data-name="Rectangle 632" width="176.788" height="5.302" transform="translate(0 38.696)" fill="#d0d1d0"/>
      <path id="Path_928" data-name="Path 928" d="M517.4,277.7l12.631,33.424h57.231l-.416-1.715-23.184-.676L553.007,277.7Z" transform="translate(-503.781 -272.999)" fill="#dadada"/>
      <path id="Path_929" data-name="Path 929" d="M562.167,307.933a2.356,2.356,0,0,1-1.455,3.015,2.475,2.475,0,0,1-2.807-1.975,2.356,2.356,0,0,1,1.456-3.015,2.578,2.578,0,0,1,2.807,1.975" transform="translate(-523.181 -286.547)" fill="#fff"/>
    </g>
    <rect id="Rectangle_633" data-name="Rectangle 633" width="32.852" height="45.276" transform="translate(249.353 46.523)" fill="#eaeaea"/>
    <g id="Group_878" data-name="Group 878" transform="translate(253.824 51.402)">
      <path id="Path_930" data-name="Path 930" d="M751.9,154.485c0,.052-2.339.1-5.25.1s-5.25-.052-5.25-.1,2.339-.1,5.25-.1a36.111,36.111,0,0,1,5.25.1" transform="translate(-728.665 -150.216)" fill="#263338"/>
      <path id="Path_931" data-name="Path 931" d="M746.5,165.9a33.858,33.858,0,0,1-5.3,0,17.925,17.925,0,0,1,2.651-.1,17.339,17.339,0,0,1,2.651.1" transform="translate(-728.569 -155.709)" fill="#263338"/>
      <path id="Path_932" data-name="Path 932" d="M722.2,169.2a33.853,33.853,0,0,1-5.3,0,17.933,17.933,0,0,1,2.651-.1,17.344,17.344,0,0,1,2.651.1" transform="translate(-716.9 -157.293)" fill="#263338"/>
      <path id="Path_933" data-name="Path 933" d="M724.905,174.085c0,.052-1.767.1-4,.1-2.183,0-4-.052-4-.1s1.767-.1,4-.1a20.672,20.672,0,0,1,4,.1" transform="translate(-716.9 -159.627)" fill="#263338"/>
      <path id="Path_934" data-name="Path 934" d="M722.2,182.385a33.848,33.848,0,0,1-5.3,0,17.929,17.929,0,0,1,2.651-.1,9.012,9.012,0,0,1,2.651.1" transform="translate(-716.9 -163.613)" fill="#263338"/>
      <path id="Path_935" data-name="Path 935" d="M724.905,187.2c0,.052-1.767.1-4,.1-2.183,0-4-.052-4-.1s1.767-.1,4-.1,4,.052,4,.1" transform="translate(-716.9 -165.937)" fill="#263338"/>
      <path id="Path_936" data-name="Path 936" d="M722.2,194.9a33.853,33.853,0,0,1-5.3,0,17.93,17.93,0,0,1,2.651-.1,17.341,17.341,0,0,1,2.651.1" transform="translate(-716.9 -169.634)" fill="#263338"/>
      <path id="Path_937" data-name="Path 937" d="M724.905,199.785c0,.052-1.767.1-4,.1-2.183,0-4-.052-4-.1s1.767-.1,4-.1a20.677,20.677,0,0,1,4,.1" transform="translate(-716.9 -171.968)" fill="#263338"/>
      <path id="Path_938" data-name="Path 938" d="M753.356,174.385c0,.052-2.7.1-5.978.1-3.327,0-5.978-.052-5.978-.1s2.7-.1,5.978-.1a46.6,46.6,0,0,1,5.978.1" transform="translate(-728.665 -159.771)" fill="#263338"/>
      <path id="Path_939" data-name="Path 939" d="M746.082,182.8a14.21,14.21,0,0,1-2.391.1,14.741,14.741,0,0,1-2.391-.1,14.212,14.212,0,0,1,2.391-.1,14.743,14.743,0,0,1,2.391.1" transform="translate(-728.617 -163.824)" fill="#263338"/>
      <path id="Path_940" data-name="Path 940" d="M753.356,191.3c0,.052-2.7.1-5.978.1-3.327,0-5.978-.052-5.978-.1s2.7-.1,5.978-.1,5.978.052,5.978.1" transform="translate(-728.665 -167.906)" fill="#263338"/>
      <path id="Path_941" data-name="Path 941" d="M753.356,199.785c0,.052-2.7.1-5.978.1-3.327,0-5.978-.052-5.978-.1s2.7-.1,5.978-.1a46.608,46.608,0,0,1,5.978.1" transform="translate(-728.665 -171.968)" fill="#263338"/>
      <path id="Path_942" data-name="Path 942" d="M752.156,208.6c0,.052-2.7.1-5.978.1-3.327,0-5.978-.052-5.978-.1s2.7-.1,5.978-.1,5.978.052,5.978.1" transform="translate(-728.088 -176.213)" fill="#263338"/>
      <path id="Path_943" data-name="Path 943" d="M725.906,155.074v-.624c0-.52,0-1.092-.052-1.767,0-1.663-.052-3.743-.052-6.186l.1.1h-8.577l.1-.1h0v8.577l-.1-.1c2.443,0,4.574.052,6.186.052.676,0,1.248,0,1.767.052h.052c-.52,0-1.092,0-1.715.052-1.663,0-3.795.052-6.238.052h-.1V146.5h0l.1-.1h8.681v.1c0,2.5-.052,4.574-.052,6.238a16.72,16.72,0,0,1-.052,1.715,5.663,5.663,0,0,0-.052.624" transform="translate(-717.069 -146.387)" fill="#263338"/>
      <path id="Path_944" data-name="Path 944" d="M725.977,152.848a4.806,4.806,0,0,0-.468-.26c-.416-.26-.78-.52-1.144-.78h.1c-.884.832-1.715,1.663-2.651,2.547l-.052.052-.052.052-.1-.052c-.572-.416-1.092-.78-1.611-1.144h.156c-.624.52-1.3,1.092-1.975,1.611-.468.416-.78.624-.78.572,0,0,.26-.26.728-.676.624-.572,1.3-1.144,1.923-1.715L720.1,153l.052.052c.52.364,1.04.728,1.611,1.144h-.156l.052-.052c.936-.884,1.767-1.663,2.7-2.5l.052-.052.052.052c.364.26.728.572,1.144.832a1.851,1.851,0,0,1,.364.364" transform="translate(-717.14 -148.89)" fill="#263338"/>
      <path id="Path_945" data-name="Path 945" d="M725.435,149.333a1.368,1.368,0,0,0-.468-.78.878.878,0,0,0-.884-.1.977.977,0,0,0-.624.884.906.906,0,0,0,.624.884,1.024,1.024,0,0,0,.884-.1,1.368,1.368,0,0,0,.468-.78.85.85,0,0,1-.364.884,1.285,1.285,0,0,1-1.092.208,1.154,1.154,0,0,1,0-2.183,1.134,1.134,0,0,1,1.092.208c.52.468.364.936.364.884" transform="translate(-719.925 -147.247)" fill="#263338"/>
    </g>
    <rect id="Rectangle_634" data-name="Rectangle 634" width="32.852" height="45.276" transform="translate(0 46.523)" fill="#eaeaea"/>
    <g id="Group_879" data-name="Group 879" transform="translate(4.522 51.402)">
      <path id="Path_946" data-name="Path 946" d="M272.3,154.485c0,.052-2.339.1-5.25.1s-5.25-.052-5.25-.1,2.339-.1,5.25-.1a36.112,36.112,0,0,1,5.25.1" transform="translate(-249.065 -150.216)" fill="#263338"/>
      <path id="Path_947" data-name="Path 947" d="M266.9,165.9a33.859,33.859,0,0,1-5.3,0,33.849,33.849,0,0,1,5.3,0" transform="translate(-248.969 -155.709)" fill="#263338"/>
      <path id="Path_948" data-name="Path 948" d="M242.6,169.2a33.854,33.854,0,0,1-5.3,0,17.932,17.932,0,0,1,2.651-.1,17.345,17.345,0,0,1,2.651.1" transform="translate(-237.3 -157.293)" fill="#263338"/>
      <path id="Path_949" data-name="Path 949" d="M245.305,174.085c0,.052-1.767.1-4,.1-2.183,0-4-.052-4-.1s1.767-.1,4-.1a20.673,20.673,0,0,1,4,.1" transform="translate(-237.3 -159.627)" fill="#263338"/>
      <path id="Path_950" data-name="Path 950" d="M242.6,182.385a33.849,33.849,0,0,1-5.3,0,17.928,17.928,0,0,1,2.651-.1,9.013,9.013,0,0,1,2.651.1" transform="translate(-237.3 -163.613)" fill="#263338"/>
      <path id="Path_951" data-name="Path 951" d="M245.305,187.2c0,.052-1.767.1-4,.1-2.183,0-4-.052-4-.1s1.767-.1,4-.1,4,.052,4,.1" transform="translate(-237.3 -165.937)" fill="#263338"/>
      <path id="Path_952" data-name="Path 952" d="M242.6,194.9a33.854,33.854,0,0,1-5.3,0,17.929,17.929,0,0,1,2.651-.1,17.343,17.343,0,0,1,2.651.1" transform="translate(-237.3 -169.634)" fill="#263338"/>
      <path id="Path_953" data-name="Path 953" d="M245.305,199.785c0,.052-1.767.1-4,.1-2.183,0-4-.052-4-.1s1.767-.1,4-.1a20.678,20.678,0,0,1,4,.1" transform="translate(-237.3 -171.968)" fill="#263338"/>
      <path id="Path_954" data-name="Path 954" d="M273.756,174.385c0,.052-2.7.1-5.978.1-3.327,0-5.978-.052-5.978-.1s2.7-.1,5.978-.1a46.6,46.6,0,0,1,5.978.1" transform="translate(-249.065 -159.771)" fill="#263338"/>
      <path id="Path_955" data-name="Path 955" d="M266.482,182.8a14.209,14.209,0,0,1-2.391.1,14.741,14.741,0,0,1-2.391-.1,14.212,14.212,0,0,1,2.391-.1,14.743,14.743,0,0,1,2.391.1" transform="translate(-249.017 -163.824)" fill="#263338"/>
      <path id="Path_956" data-name="Path 956" d="M273.756,191.3c0,.052-2.7.1-5.978.1-3.327,0-5.978-.052-5.978-.1s2.7-.1,5.978-.1,5.978.052,5.978.1" transform="translate(-249.065 -167.906)" fill="#263338"/>
      <path id="Path_957" data-name="Path 957" d="M273.756,199.785c0,.052-2.7.1-5.978.1-3.327,0-5.978-.052-5.978-.1s2.7-.1,5.978-.1a46.608,46.608,0,0,1,5.978.1" transform="translate(-249.065 -171.968)" fill="#263338"/>
      <path id="Path_958" data-name="Path 958" d="M272.556,208.6c0,.052-2.7.1-5.978.1-3.327,0-5.978-.052-5.978-.1s2.7-.1,5.978-.1,5.978.052,5.978.1" transform="translate(-248.488 -176.213)" fill="#263338"/>
      <path id="Path_959" data-name="Path 959" d="M246.306,155.074v-.624c0-.52,0-1.092-.052-1.767,0-1.663-.052-3.743-.052-6.186l.1.1h-8.577l.1-.1h0v8.577l-.1-.1c2.443,0,4.574.052,6.186.052.676,0,1.248,0,1.767.052h.052c-.52,0-1.092,0-1.715.052-1.663,0-3.795.052-6.238.052h-.1V146.5h0l.1-.1h8.681v.1c0,2.5-.052,4.574-.052,6.238a16.729,16.729,0,0,1-.052,1.715,5.665,5.665,0,0,0-.052.624" transform="translate(-237.469 -146.387)" fill="#263338"/>
      <path id="Path_960" data-name="Path 960" d="M246.377,152.848a4.8,4.8,0,0,0-.468-.26c-.416-.26-.78-.52-1.144-.78h.1c-.884.832-1.715,1.663-2.651,2.547l-.052.052-.052.052-.1-.052c-.572-.416-1.092-.78-1.611-1.144h.156c-.624.52-1.3,1.092-1.975,1.611-.468.416-.78.624-.78.572,0,0,.26-.26.728-.676.624-.572,1.3-1.144,1.923-1.715L240.5,153l.052.052c.52.364,1.04.728,1.611,1.144h-.156l.052-.052c.936-.884,1.767-1.663,2.7-2.5l.052-.052.052.052c.364.26.728.572,1.144.832a1.855,1.855,0,0,1,.364.364" transform="translate(-237.54 -148.89)" fill="#263338"/>
      <path id="Path_961" data-name="Path 961" d="M245.835,149.333a1.367,1.367,0,0,0-.468-.78.878.878,0,0,0-.884-.1.977.977,0,0,0-.624.884.906.906,0,0,0,.624.884,1.024,1.024,0,0,0,.884-.1,1.367,1.367,0,0,0,.468-.78.85.85,0,0,1-.364.884,1.285,1.285,0,0,1-1.092.208,1.154,1.154,0,0,1,0-2.183,1.134,1.134,0,0,1,1.092.208c.52.468.364.936.364.884" transform="translate(-240.325 -147.247)" fill="#263338"/>
    </g>
    <rect id="Rectangle_635" data-name="Rectangle 635" width="3.327" height="3.327" transform="translate(109.42)" fill="#e7505c"/>
    <rect id="Rectangle_636" data-name="Rectangle 636" width="3.327" height="3.327" transform="translate(109.42 48.862)" fill="#e7505c"/>
    <rect id="Rectangle_637" data-name="Rectangle 637" width="3.327" height="3.327" transform="translate(177.308 48.862)" fill="#e7505c"/>
    <rect id="Rectangle_638" data-name="Rectangle 638" width="3.327" height="3.327" transform="translate(109.42 96.893)" fill="#e7505c"/>
    <rect id="Rectangle_639" data-name="Rectangle 639" width="3.327" height="3.327" transform="translate(142.688)" fill="#e7505c"/>
    <rect id="Rectangle_640" data-name="Rectangle 640" width="3.327" height="3.327" transform="translate(142.688 97.725)" fill="#e7505c"/>
    <rect id="Rectangle_641" data-name="Rectangle 641" width="3.327" height="3.327" transform="translate(177.308)" fill="#e7505c"/>
    <rect id="Rectangle_642" data-name="Rectangle 642" width="3.327" height="3.327" transform="translate(177.308 97.725)" fill="#e7505c"/>
    <g id="Group_880" data-name="Group 880" transform="translate(111.032 0.728)">
      <path id="Path_962" data-name="Path 962" d="M510.4,146.936v-1.871c0-1.248,0-3.015-.052-5.354,0-4.678-.052-11.488-.052-20.117-.052-17.206-.1-41.637-.156-70.434l.26.26c-20.585,0-43.664,0-67.939.052h0l.312-.312c0,36.7-.052,70.59-.052,97.725l-.26-.26c20.637.052,37.582.1,49.382.1,5.926.052,10.5.052,13.671.052,1.559,0,2.755,0,3.587.052a11.673,11.673,0,0,0,1.3.1s-.416,0-1.2.052c-.832,0-2.027,0-3.535.052-3.171,0-7.745.052-13.619.052-11.852.052-28.85.052-49.538.1h-.26v-.26c0-27.134-.052-61.026-.052-97.725V48.9h.312c24.275,0,47.3,0,67.939.052h.26v.26c-.052,28.85-.1,53.333-.156,70.59-.052,8.577-.052,15.386-.052,20.065,0,2.287,0,4.055-.052,5.3v1.352a2.353,2.353,0,0,0-.052.416" transform="translate(-442.2 -48.9)" fill="#e7505c"/>
    </g>
    <rect id="Rectangle_643" data-name="Rectangle 643" width="62.481" height="89.823" transform="translate(113.943 5.51)" fill="#e0e1e0"/>
    <g id="Group_881" data-name="Group 881" transform="translate(119.805 11.795)">
      <path id="Path_963" data-name="Path 963" d="M512.012,110.412a24.639,24.639,0,0,1-5.406.312,25.04,25.04,0,0,1-5.406-.312,24.639,24.639,0,0,1,5.406-.312,25.04,25.04,0,0,1,5.406.312" transform="translate(-479.304 -89.355)" fill="#263338"/>
      <path id="Path_964" data-name="Path 964" d="M475.778,113.012a92.5,92.5,0,0,1-15.178,0,92.489,92.489,0,0,1,15.178,0" transform="translate(-459.809 -90.604)" fill="#263338"/>
      <path id="Path_965" data-name="Path 965" d="M475.778,120.612a92.491,92.491,0,0,1-15.178,0,92.491,92.491,0,0,1,15.178,0" transform="translate(-459.809 -94.253)" fill="#263338"/>
      <path id="Path_966" data-name="Path 966" d="M475.778,128.312a92.486,92.486,0,0,1-15.178,0,48.529,48.529,0,0,1,7.589-.312c4.21,0,7.589.1,7.589.312" transform="translate(-459.809 -97.95)" fill="#263338"/>
      <path id="Path_967" data-name="Path 967" d="M475.778,135.912a92.491,92.491,0,0,1-15.178,0,92.491,92.491,0,0,1,15.178,0" transform="translate(-459.809 -101.6)" fill="#263338"/>
      <path id="Path_968" data-name="Path 968" d="M475.778,143.512a92.5,92.5,0,0,1-15.178,0,92.486,92.486,0,0,1,15.178,0" transform="translate(-459.809 -105.249)" fill="#263338"/>
      <path id="Path_969" data-name="Path 969" d="M475.778,157.312a92.486,92.486,0,0,1-15.178,0,48.533,48.533,0,0,1,7.589-.312c4.21,0,7.589.1,7.589.312" transform="translate(-459.809 -111.876)" fill="#263338"/>
      <path id="Path_970" data-name="Path 970" d="M475.778,164.912a92.5,92.5,0,0,1-15.178,0,92.491,92.491,0,0,1,15.178,0" transform="translate(-459.809 -115.525)" fill="#263338"/>
      <path id="Path_971" data-name="Path 971" d="M475.778,172.512a92.5,92.5,0,0,1-15.178,0,92.486,92.486,0,0,1,15.178,0" transform="translate(-459.809 -119.175)" fill="#263338"/>
      <path id="Path_972" data-name="Path 972" d="M469.121,180.212a28.575,28.575,0,0,1-8.421,0,15.107,15.107,0,0,1,4.21-.312c2.339,0,4.21.1,4.21.312" transform="translate(-459.857 -122.872)" fill="#263338"/>
      <path id="Path_973" data-name="Path 973" d="M525.527,122.812c0,.156-5.458.312-12.164.312s-12.164-.156-12.164-.312,5.458-.312,12.164-.312,12.164.156,12.164.312" transform="translate(-479.304 -95.309)" fill="#263338"/>
      <path id="Path_974" data-name="Path 974" d="M526.227,130.312c0,.156-5.458.312-12.164.312s-12.164-.156-12.164-.312,5.458-.312,12.164-.312,12.164.1,12.164.312" transform="translate(-479.64 -98.911)" fill="#263338"/>
      <path id="Path_975" data-name="Path 975" d="M512.012,147.312a24.639,24.639,0,0,1-5.406.312,25.04,25.04,0,0,1-5.406-.312,24.639,24.639,0,0,1,5.406-.312c2.963,0,5.406.1,5.406.312" transform="translate(-479.304 -107.074)" fill="#263338"/>
      <path id="Path_976" data-name="Path 976" d="M525.527,159.612c0,.156-5.458.312-12.164.312s-12.164-.156-12.164-.312,5.458-.312,12.164-.312c6.706.052,12.164.156,12.164.312" transform="translate(-479.304 -112.98)" fill="#263338"/>
      <path id="Path_977" data-name="Path 977" d="M526.227,167.112c0,.156-5.458.312-12.164.312s-12.164-.156-12.164-.312,5.458-.312,12.164-.312,12.164.156,12.164.312" transform="translate(-479.64 -116.582)" fill="#263338"/>
      <path id="Path_978" data-name="Path 978" d="M512.012,185.512a24.639,24.639,0,0,1-5.406.312,25.04,25.04,0,0,1-5.406-.312,24.639,24.639,0,0,1,5.406-.312,25.04,25.04,0,0,1,5.406.312" transform="translate(-479.304 -125.417)" fill="#263338"/>
      <path id="Path_979" data-name="Path 979" d="M525.527,197.912c0,.156-5.458.312-12.164.312s-12.164-.156-12.164-.312,5.458-.312,12.164-.312,12.164.156,12.164.312" transform="translate(-479.304 -131.372)" fill="#263338"/>
      <path id="Path_980" data-name="Path 980" d="M526.227,205.412c0,.156-5.458.312-12.164.312s-12.164-.156-12.164-.312,5.458-.312,12.164-.312,12.164.1,12.164.312" transform="translate(-479.64 -134.973)" fill="#263338"/>
      <path id="Path_981" data-name="Path 981" d="M475.515,86.871a10.741,10.741,0,0,1-.052-1.2c0-.832-.052-1.923-.052-3.275-.052-2.859-.1-6.862-.156-11.54l.26.26c-4.678,0-10.188.052-16.062.052l.312-.312h0v8.473c0,2.7,0,5.25-.052,7.589l-.26-.26c4.73.052,8.681.1,11.54.156,1.352.052,2.443.052,3.275.052a3.775,3.775,0,0,1,1.248,0,8.65,8.65,0,0,1-1.092.052c-.832,0-1.923.052-3.223.052-2.911.052-6.913.1-11.748.156h-.26v-.26c0-2.339,0-4.886-.052-7.589V70.809h0l.312-.312c5.874,0,11.384.052,16.062.052h.26v.26c-.052,4.782-.1,8.785-.156,11.748-.052,1.352-.052,2.391-.052,3.223a8.651,8.651,0,0,1-.052,1.092" transform="translate(-459.078 -70.337)" fill="#263338"/>
      <path id="Path_982" data-name="Path 982" d="M530.683,83.912c0,.156-5.77.312-12.891.312s-12.891-.156-12.891-.312,5.77-.312,12.891-.312,12.891.156,12.891.312" transform="translate(-481.081 -76.63)" fill="#263338"/>
      <path id="Path_983" data-name="Path 983" d="M518.391,91.012a34.986,34.986,0,0,1-6.446.312,35.464,35.464,0,0,1-6.446-.312,34.983,34.983,0,0,1,6.446-.312,35.461,35.461,0,0,1,6.446.312" transform="translate(-481.369 -80.039)" fill="#263338"/>
      <path id="Path_984" data-name="Path 984" d="M509.285,74.39c0,.052-.364.364-1.2.52a2.338,2.338,0,0,1-1.507-.26,2.045,2.045,0,0,1-.988-1.611,2.245,2.245,0,0,1,.624-1.767,2.385,2.385,0,0,1,1.352-.676c.884-.052,1.352.312,1.3.364-.052.1-.52-.1-1.2.052a2,2,0,0,0-1.04.624,1.766,1.766,0,0,0-.416,1.352,1.7,1.7,0,0,0,.728,1.2,1.911,1.911,0,0,0,1.144.312c.676-.052,1.144-.208,1.2-.1" transform="translate(-481.411 -70.383)" fill="#263338"/>
      <path id="Path_985" data-name="Path 985" d="M517.29,70.2c.156.1-.572,1.871-1.611,4h0l-.26.52-.312-.468c-1.2-2.079-2.079-3.795-1.923-3.9s1.248,1.507,2.443,3.587l-.572.052h0c1.092-2.183,2.079-3.9,2.235-3.795" transform="translate(-485.05 -70.191)" fill="#263338"/>
      <path id="Path_986" data-name="Path 986" d="M476.879,98.057a12.121,12.121,0,0,0-1.611-1.819,8.59,8.59,0,0,0-5.354-2.079,7.406,7.406,0,0,0-5.3,2.027A23.569,23.569,0,0,0,463,98.057a2.32,2.32,0,0,1,.26-.624,7.1,7.1,0,0,1,1.144-1.455,7.506,7.506,0,0,1,5.51-2.183,8.572,8.572,0,0,1,5.51,2.235,8.2,8.2,0,0,1,1.2,1.4,2.318,2.318,0,0,1,.26.624" transform="translate(-460.961 -81.522)" fill="#263338"/>
      <path id="Path_987" data-name="Path 987" d="M470.384,76.332a1.751,1.751,0,0,1,.936-.364,3.74,3.74,0,0,1,2.7.728,4.647,4.647,0,0,1,1.663,3.743,5.186,5.186,0,0,1-.52,2.443,3.09,3.09,0,0,1-2.079,1.663,3.859,3.859,0,0,1-2.651-.208,4.488,4.488,0,0,1-1.871-1.663,3.732,3.732,0,0,1-.572-2.183,7.48,7.48,0,0,1,.26-1.923,3.849,3.849,0,0,1,1.715-2.183,2.486,2.486,0,0,1,.988-.312c0,.052-.364.1-.884.416a3.382,3.382,0,0,0-1.559,2.131,4.832,4.832,0,0,0,.364,3.847,3.8,3.8,0,0,0,4.159,1.715,2.887,2.887,0,0,0,1.871-1.507,5.074,5.074,0,0,0,.52-2.287,4.509,4.509,0,0,0-1.508-3.535,3.481,3.481,0,0,0-2.5-.78c-.676.1-.988.312-1.04.26" transform="translate(-463.355 -72.949)" fill="#263338"/>
      <path id="Path_988" data-name="Path 988" d="M478.808,82.4c.1,0,.156.1.156.208a.224.224,0,0,1-.208.208c-.1,0-.156-.1-.156-.208a.224.224,0,0,1,.208-.208" transform="translate(-468.452 -76.054)" fill="#263338"/>
      <path id="Path_989" data-name="Path 989" d="M471.908,83.4c.1,0,.156.1.156.208a.224.224,0,0,1-.208.208c-.1,0-.156-.1-.156-.208.052-.1.1-.208.208-.208" transform="translate(-465.139 -76.534)" fill="#263338"/>
      <path id="Path_990" data-name="Path 990" d="M468.4,79.287a3.737,3.737,0,0,1,.936-.1,9.512,9.512,0,0,0,2.235-.26,3.457,3.457,0,0,0,1.871-1.092c.312-.468.364-.832.468-.832.052,0,.052.416-.26.936a3.321,3.321,0,0,1-1.975,1.3,6.239,6.239,0,0,1-2.339.156c-.572.052-.936-.052-.936-.1" transform="translate(-463.554 -73.461)" fill="#263338"/>
      <path id="Path_991" data-name="Path 991" d="M467.522,85.778c0,.052-.1.1-.364.1a.8.8,0,0,1-.676-.624.47.47,0,0,1,.156-.52.37.37,0,0,1,.416-.156c.26,0,.364.208.312.208-.052.052-.156,0-.26.052a.329.329,0,0,0-.208.416c.052.416.624.468.624.52" transform="translate(-462.624 -77.092)" fill="#263338"/>
      <path id="Path_992" data-name="Path 992" d="M482.56,85.082c0-.052.312-.312.26-.624-.1-.312-.468-.364-.52-.468a.189.189,0,0,1,.26-.1.638.638,0,0,1,.572.52.62.62,0,0,1-.312.676c-.1.1-.26.052-.26,0" transform="translate(-470.229 -76.761)" fill="#263338"/>
      <path id="Path_993" data-name="Path 993" d="M476.2,87.1c.052,0,0,.208-.208.416a1.375,1.375,0,0,1-.988.468,1.27,1.27,0,0,1-1.04-.364.761.761,0,0,1-.26-.416,2.674,2.674,0,0,0,1.3.364c.676.052,1.092-.52,1.2-.468" transform="translate(-466.099 -78.308)" fill="#263338"/>
      <path id="Path_994" data-name="Path 994" d="M475.938,84.48c-.052-.052.364-.26.52-.728l.208.208a.714.714,0,0,1-.624-.208,1.214,1.214,0,0,1-.364-1.144c.052-.26.1-.468.156-.416.052,0,.052.208.1.468a1.053,1.053,0,0,0,.312.832.472.472,0,0,0,.364.156h.26l-.1.208c-.26.676-.884.728-.832.624" transform="translate(-467.038 -75.95)" fill="#263338"/>
      <path id="Path_995" data-name="Path 995" d="M474.308,93.288c-.1,0-.208-.208-.208-.468s.052-.52.156-.52.208.208.208.468c0,.312-.052.52-.156.52" transform="translate(-466.291 -80.808)" fill="#263338"/>
      <path id="Path_996" data-name="Path 996" d="M477.808,92.988c-.1,0-.208-.208-.208-.468s.052-.52.156-.52.208.208.208.468c0,.312-.052.52-.156.52" transform="translate(-467.972 -80.664)" fill="#263338"/>
    </g>
    <rect id="Rectangle_644" data-name="Rectangle 644" width="40.025" height="57.491" transform="translate(194.929 34.048)" fill="#eaeaea"/>
    <g id="Group_882" data-name="Group 882" transform="translate(198.828 38.379)">
      <path id="Path_997" data-name="Path 997" d="M644.562,146.708a15.211,15.211,0,0,1-3.431.208,14.83,14.83,0,0,1-3.431-.208,28.409,28.409,0,0,1,6.862,0" transform="translate(-623.873 -133.418)" fill="#263338"/>
      <path id="Path_998" data-name="Path 998" d="M620.869,149.508a29.873,29.873,0,0,1-4.834.208,29.336,29.336,0,0,1-4.834-.208,56.3,56.3,0,0,1,9.668,0" transform="translate(-611.148 -134.762)" fill="#263338"/>
      <path id="Path_999" data-name="Path 999" d="M620.869,154.408a29.874,29.874,0,0,1-4.834.208,29.337,29.337,0,0,1-4.834-.208,56.3,56.3,0,0,1,9.668,0" transform="translate(-611.148 -137.115)" fill="#263338"/>
      <path id="Path_1000" data-name="Path 1000" d="M620.869,159.308a29.874,29.874,0,0,1-4.834.208,29.337,29.337,0,0,1-4.834-.208,56.3,56.3,0,0,1,9.668,0" transform="translate(-611.148 -139.468)" fill="#263338"/>
      <path id="Path_1001" data-name="Path 1001" d="M616.506,164.208a17.674,17.674,0,0,1-5.406,0,17.673,17.673,0,0,1,5.406,0" transform="translate(-611.1 -141.821)" fill="#263338"/>
      <path id="Path_1002" data-name="Path 1002" d="M653.194,154.608a146.307,146.307,0,0,1-15.594,0,76.78,76.78,0,0,1,7.8-.208c4.262.052,7.8.1,7.8.208" transform="translate(-623.825 -137.211)" fill="#263338"/>
      <path id="Path_1003" data-name="Path 1003" d="M653.594,159.408a146.307,146.307,0,0,1-15.594,0,146.307,146.307,0,0,1,15.594,0" transform="translate(-624.017 -139.516)" fill="#263338"/>
      <path id="Path_1004" data-name="Path 1004" d="M644.562,170.308a15.211,15.211,0,0,1-3.431.208,14.83,14.83,0,0,1-3.431-.208,28.409,28.409,0,0,1,6.862,0" transform="translate(-623.873 -144.75)" fill="#263338"/>
      <path id="Path_1005" data-name="Path 1005" d="M653.194,178.208a146.329,146.329,0,0,1-15.594,0,76.768,76.768,0,0,1,7.8-.208c4.262.052,7.8.1,7.8.208" transform="translate(-623.825 -148.543)" fill="#263338"/>
      <path id="Path_1006" data-name="Path 1006" d="M653.594,183.008a146.307,146.307,0,0,1-15.594,0,146.307,146.307,0,0,1,15.594,0" transform="translate(-624.017 -150.848)" fill="#263338"/>
      <path id="Path_1007" data-name="Path 1007" d="M644.562,194.808a15.212,15.212,0,0,1-3.431.208,14.831,14.831,0,0,1-3.431-.208,15.209,15.209,0,0,1,3.431-.208,19.942,19.942,0,0,1,3.431.208" transform="translate(-623.873 -156.515)" fill="#263338"/>
      <path id="Path_1008" data-name="Path 1008" d="M653.194,202.708a146.307,146.307,0,0,1-15.594,0,76.766,76.766,0,0,1,7.8-.208c4.262.052,7.8.1,7.8.208" transform="translate(-623.825 -160.308)" fill="#263338"/>
      <path id="Path_1009" data-name="Path 1009" d="M653.594,207.508a146.3,146.3,0,0,1-15.594,0,76.781,76.781,0,0,1,7.8-.208c4.314.052,7.8.1,7.8.208" transform="translate(-624.017 -162.613)" fill="#263338"/>
      <path id="Path_1010" data-name="Path 1010" d="M656.43,134.308c0,.1-3.691.208-8.265.208s-8.265-.1-8.265-.208,3.691-.208,8.265-.208,8.265.1,8.265.208" transform="translate(-624.929 -127.463)" fill="#263338"/>
      <path id="Path_1011" data-name="Path 1011" d="M648.613,138.908a21.756,21.756,0,0,1-4.106.208,21.3,21.3,0,0,1-4.107-.208,21.3,21.3,0,0,1,4.107-.208,21.753,21.753,0,0,1,4.106.208" transform="translate(-625.169 -129.672)" fill="#263338"/>
      <path id="Path_1012" data-name="Path 1012" d="M642.731,128.137c0,.052-.26.208-.78.312a1.25,1.25,0,0,1-.936-.156,1.426,1.426,0,0,1,.624-2.6,1.059,1.059,0,0,1,.832.208c0,.052-.312-.052-.78.052a1.189,1.189,0,0,0-.936,1.3,1.114,1.114,0,0,0,.468.78,1.421,1.421,0,0,0,.728.208c.468-.052.78-.156.78-.1" transform="translate(-625.161 -123.423)" fill="#263338"/>
      <path id="Path_1013" data-name="Path 1013" d="M647.888,125.5a9.169,9.169,0,0,1-1.04,2.547h0l-.156.312-.156-.312a9.377,9.377,0,0,1-1.247-2.5,10.567,10.567,0,0,1,1.559,2.287h-.312a14.9,14.9,0,0,1,1.352-2.339" transform="translate(-627.511 -123.332)" fill="#263338"/>
      <path id="Path_1014" data-name="Path 1014" d="M621.712,131.712s0-.26-.052-.78c0-.572,0-1.3-.052-2.131,0-1.923-.052-4.418-.1-7.381l.156.156H611.368l.208-.208h0v10.188l-.156-.156c2.963.052,5.51.052,7.381.1.832,0,1.508.052,2.131.052.468.1.78.156.78.156s-.208,0-.728.052c-.572,0-1.248,0-2.079.052-1.923,0-4.47.052-7.485.1h-.156V121.575h0l.208-.208H621.92v.156c-.052,3.015-.052,5.562-.1,7.485,0,.832-.052,1.507-.052,2.079a4.885,4.885,0,0,0-.052.624" transform="translate(-611.16 -121.332)" fill="#263338"/>
      <path id="Path_1015" data-name="Path 1015" d="M618.207,125.645a1.871,1.871,0,0,1,.624-.26,2.4,2.4,0,0,1,1.715.468,3.254,3.254,0,0,1,1.092,2.391,3.353,3.353,0,0,1-.312,1.559,2.061,2.061,0,0,1-1.352,1.092,2.6,2.6,0,0,1-2.911-1.2,2.7,2.7,0,0,1-.364-1.4,4.549,4.549,0,0,1,.156-1.248,2.427,2.427,0,0,1,1.092-1.4,1.392,1.392,0,0,1,.624-.208,2.565,2.565,0,0,0-.572.26,2.2,2.2,0,0,0-.988,1.352,3.134,3.134,0,0,0,.208,2.443,2.356,2.356,0,0,0,2.651,1.092,2.255,2.255,0,0,0,1.507-2.391,2.923,2.923,0,0,0-.936-2.287,2.442,2.442,0,0,0-1.611-.52c-.416.156-.624.312-.624.26" transform="translate(-613.789 -123.271)" fill="#263338"/>
      <path id="Path_1016" data-name="Path 1016" d="M625.748,131.12c0-.052.364-.156.364-.52-.052-.364-.468-.416-.416-.468,0-.052.1-.1.26-.052s.416.208.416.468a.576.576,0,0,1-.312.572c-.156.1-.312.052-.312,0" transform="translate(-618.107 -125.523)" fill="#263338"/>
      <path id="Path_1017" data-name="Path 1017" d="M616.337,130.988c0,.052-.312.26-.208.572s.52.312.52.364-.052.1-.26.1a.591.591,0,0,1-.52-.364.541.541,0,0,1,.208-.624.27.27,0,0,1,.26-.052" transform="translate(-613.374 -125.963)" fill="#263338"/>
      <path id="Path_1018" data-name="Path 1018" d="M621.823,132.4c.052,0-.156.624-.936.78-.78.1-1.144-.468-1.092-.52s.468.312,1.04.26c.624-.1.936-.572.988-.52" transform="translate(-615.273 -126.643)" fill="#263338"/>
      <path id="Path_1019" data-name="Path 1019" d="M621.143,127.22a1.767,1.767,0,0,1-.52.312,1.6,1.6,0,0,1-.728.052.772.772,0,0,1-.624-.624l.208.052-.052.052a2.127,2.127,0,0,1-1.4.624c-.416.052-.624-.052-.624-.1a2.931,2.931,0,0,0,1.819-.728h.052l.156-.156.052.26a.827.827,0,0,0,.468.468,1.063,1.063,0,0,0,.572,0c.364-.156.572-.26.624-.208" transform="translate(-614.125 -123.91)" fill="#263338"/>
      <path id="Path_1020" data-name="Path 1020" d="M621.837,139.328c-.052.052-.26-.416-.884-.936a4.624,4.624,0,0,0-2.911-.936,4.473,4.473,0,0,0-2.859.988,5.991,5.991,0,0,0-.884.988l.156-.312a3.343,3.343,0,0,1,.624-.78,4.706,4.706,0,0,1,2.963-1.144,4.3,4.3,0,0,1,3.015,1.04,3.32,3.32,0,0,1,.624.728,3.088,3.088,0,0,1,.156.364" transform="translate(-612.637 -128.948)" fill="#263338"/>
      <path id="Path_1021" data-name="Path 1021" d="M621.413,130.9c0-.052.1-.156.208-.312v.1c-.1-.1-.156-.208-.26-.312-.208-.416-.156-.78-.1-.78a2.739,2.739,0,0,1,.312.676,1.087,1.087,0,0,0,.208.312l.052.052-.052.052c-.156.26-.364.26-.364.208" transform="translate(-615.955 -125.302)" fill="#263338"/>
      <path id="Path_1022" data-name="Path 1022" d="M623.7,130.154c-.052.052-.208-.052-.312,0-.156,0-.26.1-.312.1s-.052-.312.26-.364.416.208.364.26" transform="translate(-616.838 -125.44)" fill="#263338"/>
      <path id="Path_1023" data-name="Path 1023" d="M619.015,130.608c-.052.052-.156,0-.312,0s-.26.052-.312,0,.1-.208.312-.208.364.208.312.208" transform="translate(-614.596 -125.687)" fill="#263338"/>
      <path id="Path_1024" data-name="Path 1024" d="M616.389,131.912a3.759,3.759,0,0,1-.364.208,2.036,2.036,0,0,1-.468.208.828.828,0,0,1-.676-.156,1.077,1.077,0,0,1-.468-.676.937.937,0,0,1,.052-.52c.052-.156.1-.26,0-.364a.926.926,0,0,1-.156-1.04c.208-.364.52-.572.572-.884a7.327,7.327,0,0,0-.052-1.04,3.361,3.361,0,0,1,.208-1.04,2.176,2.176,0,0,1,1.2-1.248,1.661,1.661,0,0,1,1.559.052,2.093,2.093,0,0,0-1.508.1,2.265,2.265,0,0,0-1.092,1.2,6.049,6.049,0,0,0-.208.936,6.968,6.968,0,0,1,.052,1.092c-.1.468-.468.676-.624.936a.719.719,0,0,0,.156.832.6.6,0,0,1,0,.52,1.016,1.016,0,0,0-.052.364.8.8,0,0,0,.416.572.851.851,0,0,0,.988,0c.312-.052.416-.1.468-.052" transform="translate(-612.594 -123.196)" fill="#263338"/>
      <path id="Path_1025" data-name="Path 1025" d="M623.355,132.208a2.356,2.356,0,0,1,.416.052.694.694,0,0,0,.728-.572,1.209,1.209,0,0,0-.052-.728.5.5,0,0,1,.1-.468c.052-.156.156-.26.156-.416a1.127,1.127,0,0,0-.156-.884c-.156-.26-.416-.52-.624-.832-.364-.676-.364-1.4-.624-1.923a1.55,1.55,0,0,0-1.2-.936,14.293,14.293,0,0,0-1.507-.1,3.4,3.4,0,0,1,1.559-.052,1.77,1.77,0,0,1,1.352,1.04,13.807,13.807,0,0,0,.624,1.923,8.684,8.684,0,0,0,.624.832,1.48,1.48,0,0,1,.156,1.04c-.1.364-.364.572-.26.78a1.326,1.326,0,0,1,0,.78,1.174,1.174,0,0,1-.416.572,1.028,1.028,0,0,1-.52.1,1.438,1.438,0,0,0-.364-.208" transform="translate(-615.662 -123.232)" fill="#263338"/>
      <path id="Path_1026" data-name="Path 1026" d="M619.836,136.744c-.052,0-.156-.26-.156-.572-.052-.312,0-.572.052-.572s.156.26.156.572c.052.312.052.572-.052.572" transform="translate(-615.21 -128.183)" fill="#263338"/>
      <path id="Path_1027" data-name="Path 1027" d="M623.588,135.5c.052,0,.1.26.052.572s-.156.52-.208.52-.1-.26-.052-.572.1-.52.208-.52" transform="translate(-616.986 -128.135)" fill="#263338"/>
    </g>
    <rect id="Rectangle_645" data-name="Rectangle 645" width="40.025" height="57.491" transform="translate(49.694 34.048)" fill="#eaeaea"/>
    <g id="Group_883" data-name="Group 883" transform="translate(53.502 38.355)">
      <path id="Path_1028" data-name="Path 1028" d="M365.162,146.708a15.211,15.211,0,0,1-3.431.208,14.83,14.83,0,0,1-3.431-.208,15.211,15.211,0,0,1,3.431-.208,14.83,14.83,0,0,1,3.431.208" transform="translate(-344.382 -133.394)" fill="#263338"/>
      <path id="Path_1029" data-name="Path 1029" d="M341.469,149.508a29.874,29.874,0,0,1-4.834.208,29.336,29.336,0,0,1-4.834-.208,29.877,29.877,0,0,1,4.834-.208,29.339,29.339,0,0,1,4.834.208" transform="translate(-331.657 -134.739)" fill="#263338"/>
      <path id="Path_1030" data-name="Path 1030" d="M341.469,154.408a29.875,29.875,0,0,1-4.834.208,29.337,29.337,0,0,1-4.834-.208,29.874,29.874,0,0,1,4.834-.208,29.334,29.334,0,0,1,4.834.208" transform="translate(-331.657 -137.092)" fill="#263338"/>
      <path id="Path_1031" data-name="Path 1031" d="M341.469,159.308a29.875,29.875,0,0,1-4.834.208,29.337,29.337,0,0,1-4.834-.208,29.875,29.875,0,0,1,4.834-.208,29.337,29.337,0,0,1,4.834.208" transform="translate(-331.657 -139.444)" fill="#263338"/>
      <path id="Path_1032" data-name="Path 1032" d="M337.206,164.208a17.674,17.674,0,0,1-5.406,0,9.319,9.319,0,0,1,2.7-.208,9.621,9.621,0,0,1,2.7.208" transform="translate(-331.657 -141.797)" fill="#263338"/>
      <path id="Path_1033" data-name="Path 1033" d="M373.794,154.608a76.78,76.78,0,0,1-7.8.208,76.78,76.78,0,0,1-7.8-.208,76.78,76.78,0,0,1,7.8-.208c4.314.052,7.8.1,7.8.208" transform="translate(-344.334 -137.188)" fill="#263338"/>
      <path id="Path_1034" data-name="Path 1034" d="M374.294,159.408a76.78,76.78,0,0,1-7.8.208,76.78,76.78,0,0,1-7.8-.208,76.774,76.774,0,0,1,7.8-.208,77.641,77.641,0,0,1,7.8.208" transform="translate(-344.574 -139.493)" fill="#263338"/>
      <path id="Path_1035" data-name="Path 1035" d="M365.162,170.308a15.212,15.212,0,0,1-3.431.208,14.83,14.83,0,0,1-3.431-.208,15.21,15.21,0,0,1,3.431-.208,14.829,14.829,0,0,1,3.431.208" transform="translate(-344.382 -144.727)" fill="#263338"/>
      <path id="Path_1036" data-name="Path 1036" d="M373.794,178.208a76.791,76.791,0,0,1-7.8.208,76.791,76.791,0,0,1-7.8-.208A76.768,76.768,0,0,1,366,178c4.314.052,7.8.1,7.8.208" transform="translate(-344.334 -148.52)" fill="#263338"/>
      <path id="Path_1037" data-name="Path 1037" d="M374.294,183.008a76.786,76.786,0,0,1-7.8.208,76.785,76.785,0,0,1-7.8-.208,76.774,76.774,0,0,1,7.8-.208,77.646,77.646,0,0,1,7.8.208" transform="translate(-344.574 -150.825)" fill="#263338"/>
      <path id="Path_1038" data-name="Path 1038" d="M365.162,194.808a15.212,15.212,0,0,1-3.431.208,14.831,14.831,0,0,1-3.431-.208,15.209,15.209,0,0,1,3.431-.208,19.353,19.353,0,0,1,3.431.208" transform="translate(-344.382 -156.491)" fill="#263338"/>
      <path id="Path_1039" data-name="Path 1039" d="M373.794,202.708a76.786,76.786,0,0,1-7.8.208,76.785,76.785,0,0,1-7.8-.208,76.766,76.766,0,0,1,7.8-.208c4.314.052,7.8.1,7.8.208" transform="translate(-344.334 -160.285)" fill="#263338"/>
      <path id="Path_1040" data-name="Path 1040" d="M374.294,207.508a76.777,76.777,0,0,1-7.8.208,76.777,76.777,0,0,1-7.8-.208,76.78,76.78,0,0,1,7.8-.208c4.262.052,7.8.1,7.8.208" transform="translate(-344.574 -162.59)" fill="#263338"/>
      <path id="Path_1041" data-name="Path 1041" d="M377.13,134.308c0,.1-3.691.208-8.265.208s-8.265-.1-8.265-.208,3.691-.208,8.265-.208,8.265.1,8.265.208" transform="translate(-345.487 -127.44)" fill="#263338"/>
      <path id="Path_1042" data-name="Path 1042" d="M369.313,138.908a21.757,21.757,0,0,1-4.107.208,21.3,21.3,0,0,1-4.107-.208,21.3,21.3,0,0,1,4.107-.208,21.754,21.754,0,0,1,4.107.208" transform="translate(-345.727 -129.649)" fill="#263338"/>
      <path id="Path_1043" data-name="Path 1043" d="M342.012,131.638s0-.26-.052-.78c0-.572,0-1.3-.052-2.131,0-1.923-.052-4.418-.1-7.381l.156.156H331.668c-.052.052.364-.364.208-.156h0v10.188l-.156-.156c2.963.052,5.51.052,7.381.1.832,0,1.507.052,2.131.052.52.052.78.1.78.1s-.208,0-.728.052c-.572,0-1.248,0-2.079.052-1.923,0-4.47.052-7.485.1h-.156V121.5h0l.208-.208H342.22v.156c-.052,3.015-.052,5.562-.1,7.485,0,.832-.052,1.507-.052,2.079,0,.364,0,.624-.052.624" transform="translate(-331.525 -121.287)" fill="#263338"/>
      <path id="Path_1044" data-name="Path 1044" d="M338.607,125.545a1.872,1.872,0,0,1,.624-.26,2.4,2.4,0,0,1,1.715.468,3.254,3.254,0,0,1,1.092,2.391,3.354,3.354,0,0,1-.312,1.559,2.061,2.061,0,0,1-1.352,1.092,2.6,2.6,0,0,1-2.911-1.2,2.7,2.7,0,0,1-.364-1.4,4.55,4.55,0,0,1,.156-1.248,2.427,2.427,0,0,1,1.092-1.4,1.393,1.393,0,0,1,.624-.208,2.565,2.565,0,0,0-.572.26,2.2,2.2,0,0,0-.988,1.352,3.134,3.134,0,0,0,.208,2.443,2.356,2.356,0,0,0,2.651,1.092,2.255,2.255,0,0,0,1.508-2.391,2.923,2.923,0,0,0-.936-2.287,2.442,2.442,0,0,0-1.611-.52c-.416.156-.624.312-.624.26" transform="translate(-334.202 -123.199)" fill="#263338"/>
      <path id="Path_1045" data-name="Path 1045" d="M346.148,131.02c0-.052.364-.156.364-.52-.052-.364-.468-.416-.416-.468,0-.052.1-.1.26-.052s.416.208.416.468a.576.576,0,0,1-.312.572c-.208.1-.312.052-.312,0" transform="translate(-338.52 -125.451)" fill="#263338"/>
      <path id="Path_1046" data-name="Path 1046" d="M336.737,130.888c0,.052-.312.26-.208.572s.52.312.52.364-.052.1-.26.1a.591.591,0,0,1-.52-.364.54.54,0,0,1,.208-.624.271.271,0,0,1,.26-.052" transform="translate(-333.787 -125.891)" fill="#263338"/>
      <path id="Path_1047" data-name="Path 1047" d="M342.123,132.3c.052,0-.156.624-.936.78-.78.1-1.144-.468-1.092-.52s.468.312,1.04.26c.624-.1.936-.572.988-.52" transform="translate(-335.638 -126.572)" fill="#263338"/>
      <path id="Path_1048" data-name="Path 1048" d="M341.443,127.12a1.767,1.767,0,0,1-.52.312,1.6,1.6,0,0,1-.728.052.772.772,0,0,1-.624-.624l.208.052-.052.052a2.127,2.127,0,0,1-1.4.624c-.416.052-.624-.052-.624-.1a2.931,2.931,0,0,0,1.819-.728h.052l.156-.156.052.26a.827.827,0,0,0,.468.468,1.063,1.063,0,0,0,.572,0c.416-.156.624-.26.624-.208" transform="translate(-334.49 -123.838)" fill="#263338"/>
      <path id="Path_1049" data-name="Path 1049" d="M342.137,139.228c-.052.052-.26-.416-.884-.936a4.624,4.624,0,0,0-2.911-.936,4.474,4.474,0,0,0-2.859.988,5.991,5.991,0,0,0-.884.988l.156-.312a3.345,3.345,0,0,1,.624-.78,4.706,4.706,0,0,1,2.963-1.144,4.3,4.3,0,0,1,3.015,1.04,3.317,3.317,0,0,1,.624.728c.156.208.208.364.156.364" transform="translate(-333.002 -128.877)" fill="#263338"/>
      <path id="Path_1050" data-name="Path 1050" d="M341.813,130.848c0-.052.1-.156.208-.312v.156c-.1-.1-.156-.208-.26-.312-.208-.416-.156-.78-.1-.78a2.743,2.743,0,0,1,.312.676,1.087,1.087,0,0,0,.208.312l.052.052-.052.052c-.208.208-.364.208-.364.156" transform="translate(-336.368 -125.279)" fill="#263338"/>
      <path id="Path_1051" data-name="Path 1051" d="M344,130.054c-.052.052-.208-.052-.312,0-.156,0-.26.1-.312.1s-.052-.312.26-.364.468.208.364.26" transform="translate(-337.204 -125.369)" fill="#263338"/>
      <path id="Path_1052" data-name="Path 1052" d="M339.414,130.508c-.052.052-.156,0-.312,0s-.26.052-.312,0,.1-.208.312-.208.364.156.312.208" transform="translate(-335.009 -125.615)" fill="#263338"/>
      <path id="Path_1053" data-name="Path 1053" d="M340.236,136.644c-.052,0-.156-.26-.156-.572-.052-.312,0-.572.052-.572s.156.26.156.572c.052.312,0,.572-.052.572" transform="translate(-335.623 -128.112)" fill="#263338"/>
      <path id="Path_1054" data-name="Path 1054" d="M343.888,135.394c.052,0,.1.26.052.572s-.156.52-.208.52-.1-.26-.052-.572.156-.572.208-.52" transform="translate(-337.352 -128.058)" fill="#263338"/>
      <path id="Path_1055" data-name="Path 1055" d="M336.79,136.023c-.052,0,.1-.728.156-1.611A8.982,8.982,0,0,1,337,132.8a3.48,3.48,0,0,1,.208,1.611,3.113,3.113,0,0,1-.416,1.611" transform="translate(-334.049 -126.815)" fill="#263338"/>
      <path id="Path_1056" data-name="Path 1056" d="M346.718,135.335a9.3,9.3,0,0,1-.364-1.767,4.308,4.308,0,0,1-.1-1.767,9.291,9.291,0,0,1,.364,1.767,4.308,4.308,0,0,1,.1,1.767" transform="translate(-338.57 -126.335)" fill="#263338"/>
    </g>
    <path id="Path_1057" data-name="Path 1057" d="M731.31,416.9l-1.455,62.9H727.1l.156-62.741Z" transform="translate(-467.974 -224.882)" fill="#e0e1e0"/>
    <g id="Group_884" data-name="Group 884" transform="translate(163.241 41.164)">
      <path id="Path_1058" data-name="Path 1058" d="M548.441,217.5l3.587,1.715,3.275-5.146-1.923-4c-.208-.364-.364-.78-.572-1.248a5.166,5.166,0,0,1-.416-1.767,7.839,7.839,0,0,1,.052-2.235c.156-.676-.52-1.2-.988-.832s-.988,2.235-.676,4.418c.364,2.183-2.183-.156-3.171-.988-.936-.832-4-3.275-4.47-3.171-.728.156-.676.936.26,1.767.988.832,3.691,3.431,3.223,3.951h0a2.712,2.712,0,0,0-2.339,2.079c-.26,1.092-.416,2.6.156,3.067,1.2.884,4,2.391,4,2.391" transform="translate(-542.639 -163.751)" fill="#fabe9e"/>
      <path id="Path_1059" data-name="Path 1059" d="M672.319,138.331l.1,27.55-11.852.572-.364-6.706s-4.211.832-5.3-3.067c-.676-2.5-.52-21.78-.52-21.78Z" transform="translate(-596.291 -130.632)" fill="#fabe9e"/>
      <path id="Path_1060" data-name="Path 1060" d="M648.876,133.713c.78,1.663,4.574,4.678,4.574,4.678l1.715,4.574c1.507-1.144,3.483-1.092,3.847,1.507.26,1.871-2.079,2.287-2.079,2.287a32.466,32.466,0,0,0,4.314,6.446c2.131,2.391,3.379,2.651,5.718,2.7h2.6s5.3-4.418,4.21-16.01c-1.04-11.592-11.488-8.213-13.983-11.124-4.055-4.782-13.567-.572-10.916,4.938" transform="translate(-593.432 -126.69)" fill="#263338"/>
      <path id="Path_1061" data-name="Path 1061" d="M673.723,153.653h-.312a3.58,3.58,0,0,1-.936-.1,6.614,6.614,0,0,1-3.015-1.611,17.959,17.959,0,0,1-3.067-4.106,14.1,14.1,0,0,0-4-4.886,9.642,9.642,0,0,0-3.015-1.3c-1.04-.26-2.027-.416-3.015-.624a11.787,11.787,0,0,1-4.782-1.767,4.981,4.981,0,0,1-1.923-2.807,2.878,2.878,0,0,1-.1-1.248,1.454,1.454,0,0,1-.052.312,3.58,3.58,0,0,0,.1.936,5.133,5.133,0,0,0,1.923,2.859,11.331,11.331,0,0,0,4.834,1.819c1.871.364,4.106.624,5.978,1.871a14.363,14.363,0,0,1,3.951,4.834,15.734,15.734,0,0,0,3.119,4.107,6.744,6.744,0,0,0,3.067,1.611,4.5,4.5,0,0,0,1.248.1" transform="translate(-593.953 -130.776)" fill="#455a64"/>
      <path id="Path_1062" data-name="Path 1062" d="M660.95,401.6l-4.834,73.553-11.176-1.248s-.26-71.734.26-71.682c.572.052,15.75-.624,15.75-.624" transform="translate(-591.732 -258.699)" fill="#fabe9e"/>
    </g>
    <path id="Path_1063" data-name="Path 1063" d="M707.211,400.7l12.579,72.93-9.928,1.507L692.5,404.183Z" transform="translate(-451.36 -217.103)" fill="#fabe9e"/>
    <path id="Path_1064" data-name="Path 1064" d="M677.494,309.815,698.286,424.9l-19.857,4.262-18.713-98.712L656.7,428.072H638.3L641.211,306.8Z" transform="translate(-425.333 -172.013)" fill="#263338"/>
    <path id="Path_1065" data-name="Path 1065" d="M697.534,424.353l-19.181,4.158L659.172,327.2l-3.119,100.272H638.276l2.911-120.6,35.711,2.963Zm-19.7,4.938,20.481-4.418-.052-.312L677.47,309.215h-.26L640.563,306.2v.364L637.6,428.2h19.077v-.312l2.859-94.658Z" transform="translate(-424.997 -171.725)" fill="#263338"/>
    <g id="Group_885" data-name="Group 885" transform="translate(171.954 74.874)">
      <path id="Path_1066" data-name="Path 1066" d="M669.4,352.1s.26.052.676.1c.52.052,1.144.1,1.819.156,1.559.1,3.691.208,6.082.468,2.339.26,4.47.572,6.03.728.728.1,1.3.156,1.819.208a6.038,6.038,0,0,0,.676.052,2.2,2.2,0,0,0-.676-.156,18.084,18.084,0,0,0-1.819-.312c-1.56-.26-3.691-.624-6.03-.832-2.391-.208-4.522-.312-6.082-.364-.78,0-1.4-.052-1.871-.052H669.4" transform="translate(-612.221 -268.64)" fill="#455a64"/>
      <path id="Path_1067" data-name="Path 1067" d="M643.2,331.79a3.423,3.423,0,0,0,.468.1,4.849,4.849,0,0,0,1.3.052,7.521,7.521,0,0,0,6.6-4.73,6.05,6.05,0,0,0,.364-1.248,3.208,3.208,0,0,0,.052-.468,15.984,15.984,0,0,1-.624,1.611,7.793,7.793,0,0,1-6.342,4.626c-1.144.1-1.819-.052-1.819.052" transform="translate(-599.64 -255.867)" fill="#455a64"/>
      <path id="Path_1068" data-name="Path 1068" d="M641.374,261.018h-38.83l1.508-31.4c.26-6.186.208-6.913.364-12.579,0,0-5.822,7.017-10.344,11.9a9.364,9.364,0,0,1-10.812,2.079L559.4,214.391l4.47-11.436,21.676,13.255c.988-.624,9.461-12.683,15.282-18.557a20.8,20.8,0,0,1,14.087-6.082,103.363,103.363,0,0,1,13.151.52,13.8,13.8,0,0,1,12.267,12.579c.416,5.042.1,10.916.1,20.844Z" transform="translate(-559.4 -191.541)" fill="#315daa"/>
      <path id="Path_1069" data-name="Path 1069" d="M705.1,198.2c3.691,1.611,18.973,21.208,20.065,33.944.832,9.513-17.674,8.473-17.674,8.473s-1.248-38.934-.728-38.362" transform="translate(-629.363 -194.738)" fill="#315daa"/>
      <path id="Path_1070" data-name="Path 1070" d="M712.3,204.6v.416c0,.312.052.676.1,1.144.1.988.208,2.5.26,4.262.208,3.639.364,8.629.572,14.191.156,5.51.312,10.552.52,14.191.1,1.819.208,3.275.26,4.314.052.468.052.884.1,1.144a1.438,1.438,0,0,0,.052.416v-.416c0-.312-.052-.676-.052-1.144-.052-1.04-.1-2.5-.208-4.314-.156-3.639-.312-8.629-.468-14.191-.156-5.51-.364-10.552-.572-14.191-.1-1.819-.208-3.275-.312-4.262-.052-.468-.1-.884-.1-1.144a.913.913,0,0,1-.156-.416" transform="translate(-632.821 -197.812)" fill="#263338"/>
      <path id="Path_1071" data-name="Path 1071" d="M715.2,252.694s.208.312.52.728c.364.416.832,1.04,1.4,1.663s1.092,1.2,1.508,1.559.676.624.676.572c0,0-.208-.26-.624-.676-.364-.416-.884-.936-1.455-1.559s-1.04-1.2-1.4-1.611c-.364-.468-.624-.728-.624-.676" transform="translate(-634.213 -220.903)" fill="#263338"/>
      <path id="Path_1072" data-name="Path 1072" d="M610.584,242.995a2.324,2.324,0,0,0-.1-.572,9.6,9.6,0,0,0-.312-1.352c-.1-.52-.26-.988-.312-1.352-.1-.364-.156-.52-.156-.52a2.322,2.322,0,0,0,.1.572,9.609,9.609,0,0,0,.312,1.352c.1.52.26.988.312,1.352.1.312.156.52.156.52" transform="translate(-583.554 -214.426)" fill="#263338"/>
      <path id="Path_1073" data-name="Path 1073" d="M607.2,243.114a12.4,12.4,0,0,0,.572-2.131,16.507,16.507,0,0,0,.416-2.183,12.4,12.4,0,0,0-.572,2.131c-.26,1.2-.416,2.183-.416,2.183" transform="translate(-582.353 -214.234)" fill="#263338"/>
      <path id="Path_1074" data-name="Path 1074" d="M644,219.263a.622.622,0,0,0,.208-.208l.624-.624c.52-.52,1.3-1.3,2.235-2.287a41.254,41.254,0,0,0,3.067-3.639,20.688,20.688,0,0,0,2.755-5.094,14.2,14.2,0,0,0,.936-5.718,12.135,12.135,0,0,0-1.04-4.626,5.872,5.872,0,0,0-2.027-2.443c-.312-.208-.572-.364-.728-.468a2.708,2.708,0,0,0-.26-.156,7.7,7.7,0,0,1,.936.676,7.149,7.149,0,0,1,1.975,2.443,11.668,11.668,0,0,1,.988,4.574,13.954,13.954,0,0,1-.936,5.666,26.766,26.766,0,0,1-5.77,8.733c-.936.988-1.663,1.767-2.235,2.287a7,7,0,0,1-.624.624.4.4,0,0,1-.1.26" transform="translate(-600.024 -192.722)" fill="#263338"/>
      <path id="Path_1075" data-name="Path 1075" d="M638.7,204.043c0,.1,8.369.156,18.765.156,10.344,0,18.765-.052,18.765-.156s-8.369-.156-18.765-.156c-10.344-.052-18.765.052-18.765.156" transform="translate(-597.479 -197.463)" fill="#263338"/>
      <path id="Path_1076" data-name="Path 1076" d="M629.8,214.456c0,.1,10.448.156,23.288.156,12.891,0,23.288-.052,23.288-.156s-10.448-.156-23.288-.156-23.288.1-23.288.156" transform="translate(-593.205 -202.47)" fill="#263338"/>
      <path id="Path_1077" data-name="Path 1077" d="M618.8,225.343c0,.1,12.579.156,28.018.156,15.49,0,28.018-.052,28.018-.156s-12.527-.156-28.018-.156c-15.438-.052-28.018.052-28.018.156" transform="translate(-587.923 -207.691)" fill="#263338"/>
      <path id="Path_1078" data-name="Path 1078" d="M611.2,236.856c0,.1,14.347.156,32.072.156s32.072-.052,32.072-.156S661,236.7,643.272,236.7c-17.674,0-32.072.052-32.072.156" transform="translate(-584.274 -213.226)" fill="#263338"/>
      <path id="Path_1079" data-name="Path 1079" d="M645.7,250.208a4.238,4.238,0,0,1,.52.052c.364,0,.832,0,1.455.052,1.3,0,3.067.052,5.3.052,4.522,0,10.656.052,17.466.052s12.943-.052,17.466-.052c2.183,0,4-.052,5.3-.052a11.785,11.785,0,0,0,1.455-.052c.312,0,.52,0,.52-.052a4.238,4.238,0,0,1-.52-.052c-.364,0-.832,0-1.455-.052-1.3,0-3.067-.052-5.3-.052-4.522,0-10.656-.052-17.466-.052s-12.943.052-17.466.052c-2.183,0-4,.052-5.3.052a11.785,11.785,0,0,0-1.455.052c-.312,0-.52,0-.52.052" transform="translate(-600.84 -219.612)" fill="#263338"/>
      <path id="Path_1080" data-name="Path 1080" d="M580.6,250.943c0,.1,6.654.156,14.815.156s14.815-.052,14.815-.156-6.654-.156-14.815-.156c-8.213-.052-14.815.052-14.815.156" transform="translate(-569.58 -219.984)" fill="#263338"/>
      <path id="Path_1081" data-name="Path 1081" d="M598.8,262.856c0,.1,3.223.156,7.173.156s7.173-.052,7.173-.156-3.223-.156-7.173-.156-7.173.052-7.173.156" transform="translate(-578.319 -225.711)" fill="#263338"/>
      <path id="Path_1082" data-name="Path 1082" d="M563.3,237.956c0,.1,4.938.156,10.968.156,6.082,0,10.968-.052,10.968-.156s-4.886-.156-10.968-.156-10.968.052-10.968.156" transform="translate(-561.273 -213.754)" fill="#263338"/>
      <path id="Path_1083" data-name="Path 1083" d="M644.9,264.156c0,.1,11.54.156,25.835.156,14.243,0,25.835-.052,25.835-.156S685.029,264,670.735,264s-25.835.1-25.835.156" transform="translate(-600.456 -226.335)" fill="#263338"/>
      <path id="Path_1084" data-name="Path 1084" d="M644,279.743c0,.1,8.421.156,18.817.156s18.817-.052,18.817-.156-8.421-.156-18.817-.156c-10.344-.052-18.817.052-18.817.156" transform="translate(-600.024 -233.813)" fill="#263338"/>
      <path id="Path_1085" data-name="Path 1085" d="M644,292.256c0,.1,8.421.156,18.817.156s18.817-.052,18.817-.156-8.421-.156-18.817-.156c-10.344,0-18.817.052-18.817.156" transform="translate(-600.024 -239.828)" fill="#263338"/>
      <path id="Path_1086" data-name="Path 1086" d="M644,306.643c0,.1,8.421.156,18.817.156s18.817-.052,18.817-.156-8.421-.156-18.817-.156c-10.344-.052-18.817.052-18.817.156" transform="translate(-600.024 -246.73)" fill="#263338"/>
      <path id="Path_1087" data-name="Path 1087" d="M563.1,228.956c0,.1,3.431.156,7.693.156s7.693-.052,7.693-.156-3.431-.156-7.693-.156-7.693.052-7.693.156" transform="translate(-561.177 -209.432)" fill="#263338"/>
    </g>
    <path id="Path_1088" data-name="Path 1088" d="M735.044,536.9l1.715,6.81-11.644,1.3-.416-6.758Z" transform="translate(-466.822 -282.504)" fill="#e7505c"/>
    <g id="Group_886" data-name="Group 886" transform="translate(206.584 254.708)">
      <path id="Path_1089" data-name="Path 1089" d="M734.47,537.5a12.71,12.71,0,0,0,.364,3.119,13.3,13.3,0,0,0,.728,3.067,12.717,12.717,0,0,0-.364-3.119,12.107,12.107,0,0,0-.728-3.067" transform="translate(-678.082 -537.5)" fill="#263338"/>
      <path id="Path_1090" data-name="Path 1090" d="M725.4,549.359a8.947,8.947,0,0,0,1.663-.208c1.143-.156,2.495-.364,4.055-.572,1.559-.26,3.015-.468,4-.676a5.773,5.773,0,0,0,1.611-.416,8.929,8.929,0,0,0-1.663.208c-1.144.156-2.5.364-4.055.572-1.559.26-3.015.468-4,.676a7.719,7.719,0,0,0-1.611.416" transform="translate(-673.742 -542.289)" fill="#263338"/>
      <path id="Path_1091" data-name="Path 1091" d="M634.587,541.452l.052-1.352,12.683.312-.1,4.418-.78.052c-3.483.1-17.726.364-20.013-.416-2.6-.832,8.161-3.015,8.161-3.015" transform="translate(-626.021 -538.748)" fill="#e7505c"/>
    </g>
    <path id="Path_1092" data-name="Path 1092" d="M666.9,542.2Z" transform="translate(-439.067 -285.049)" fill="#fff"/>
    <g id="Group_887" data-name="Group 887" transform="translate(206.521 256.059)">
      <path id="Path_1093" data-name="Path 1093" d="M662.258,542.1h.416l-.052,3.483v-.1l-4.522-.052a4.337,4.337,0,0,1,4.159-3.327" transform="translate(-641.362 -541.06)" fill="#f1959e"/>
      <path id="Path_1094" data-name="Path 1094" d="M629.279,545.1c-.312.1-.572.156-.884.26a7.639,7.639,0,0,1,.884-.26m-3.327,1.352c-.1.156,0,.312.364.416.052,0,.052,0,.1.052a1.177,1.177,0,0,1-.52-.156.659.659,0,0,1,.052-.312m21.208.78c-1.975.1-4.73.208-7.641.208-1.507,0-3.015,0-4.47-.052h2.443c3.743,0,7.329-.052,8.889-.1Z" transform="translate(-625.9 -542.501)" fill="#fff"/>
      <path id="Path_1095" data-name="Path 1095" d="M629.34,545.1c.728.052,1.092,1.663,1.092,1.663l12.268.156a.191.191,0,0,1-.052.156h4.574v.208l-.78.052c-1.508.052-5.146.1-8.889.1h-2.443a73.832,73.832,0,0,1-8.577-.52c-.052,0-.052,0-.1-.052-.364-.1-.468-.26-.364-.416a7.368,7.368,0,0,1,2.391-1.092c.26-.1.572-.156.884-.26h0" transform="translate(-625.961 -542.501)" fill="#f1959e"/>
      <path id="Path_1096" data-name="Path 1096" d="M657.952,548.6l4.522.052v.1H657.9a.191.191,0,0,0,.052-.156" transform="translate(-641.266 -544.182)" fill="#f8bfc4"/>
      <path id="Path_1097" data-name="Path 1097" d="M647.364,548.172h-.832c-.624,0-1.4.052-2.287.052-1.923.052-4.626.052-7.589-.052-2.963-.052-5.614-.156-7.537-.312-.884-.052-1.663-.1-2.287-.156-.208,0-.416-.052-.624-.052-.156,0-.208,0-.208-.052h.832c.624.052,1.4.052,2.287.1,1.923.1,4.626.156,7.537.26,2.963.052,5.614.052,7.537.052H647.1c.208.156.26.156.26.156" transform="translate(-625.948 -543.701)" fill="#263338"/>
      <path id="Path_1098" data-name="Path 1098" d="M633.3,546.769a4.3,4.3,0,0,0-.416-1.092,3.632,3.632,0,0,0-.78-.884,1.681,1.681,0,0,1,.884.832,1.369,1.369,0,0,1,.312,1.144" transform="translate(-628.877 -542.351)" fill="#263338"/>
      <path id="Path_1099" data-name="Path 1099" d="M641.114,544.24c-.052,0-.208-.208-.364-.468-.156-.312-.312-.572-.26-.572s.208.208.364.468a2.147,2.147,0,0,1,.26.572" transform="translate(-632.901 -541.589)" fill="#263338"/>
      <path id="Path_1100" data-name="Path 1100" d="M643.018,543.518c-.052.052-.208-.1-.416-.312s-.364-.364-.312-.416.208.1.416.312a2.608,2.608,0,0,1,.312.416" transform="translate(-633.766 -541.387)" fill="#263338"/>
      <path id="Path_1101" data-name="Path 1101" d="M643.652,541.8c0,.052-.312.052-.676.052s-.676-.052-.676-.1.312-.052.676-.052c.416.052.676.052.676.1" transform="translate(-633.775 -540.868)" fill="#263338"/>
      <path id="Path_1102" data-name="Path 1102" d="M644.007,540.287a1.439,1.439,0,0,1-.728.208,3.186,3.186,0,0,1-.78-.1c0-.052.364,0,.728-.052.468,0,.78-.1.78-.052" transform="translate(-633.871 -540.183)" fill="#263338"/>
      <path id="Path_1103" data-name="Path 1103" d="M638.678,541.959a3.474,3.474,0,0,1-.832,0c-.26-.052-.52-.1-.884-.208a1.842,1.842,0,0,1-.468-.208.519.519,0,0,1-.208-.26c-.052-.1.052-.26.1-.312a1.48,1.48,0,0,1,1.819.468,2.353,2.353,0,0,1,.26.52c.052.156,0,.208,0,.208a2.849,2.849,0,0,0-.364-.676,1.4,1.4,0,0,0-1.663-.416c-.156.1-.1.26.052.312a1.848,1.848,0,0,0,.468.208,7.416,7.416,0,0,0,.832.26,5.523,5.523,0,0,0,.884.1" transform="translate(-630.881 -540.451)" fill="#263338"/>
      <path id="Path_1104" data-name="Path 1104" d="M640.4,541.659a1.379,1.379,0,0,1-.1-.572,1.1,1.1,0,0,1,.26-.572c.156-.156.312-.416.676-.416a.367.367,0,0,1,.26.364.776.776,0,0,1-.156.364,1.227,1.227,0,0,1-.416.468,1.145,1.145,0,0,1-.468.312l.416-.416a1.827,1.827,0,0,0,.364-.468c.1-.156.208-.468,0-.52a.689.689,0,0,0-.52.312,1.223,1.223,0,0,0-.26.52,1.426,1.426,0,0,0-.052.624" transform="translate(-632.815 -540.1)" fill="#263338"/>
      <path id="Path_1105" data-name="Path 1105" d="M662.622,541.856c0,.052-.364-.052-.936,0a3.981,3.981,0,0,0-2.027.78,4.291,4.291,0,0,0-1.3,1.767c-.208.52-.208.884-.26.884v-.26a2.036,2.036,0,0,1,.156-.676,3.731,3.731,0,0,1,1.3-1.871,3.6,3.6,0,0,1,2.131-.78,2.347,2.347,0,0,1,.676.052.525.525,0,0,0,.26.1" transform="translate(-641.362 -540.868)" fill="#263338"/>
      <path id="Path_1106" data-name="Path 1106" d="M651.639,546.332a6.876,6.876,0,0,1-1.819.156A5.467,5.467,0,0,1,648,546.28a12.185,12.185,0,0,1,1.819.052,17.736,17.736,0,0,1,1.819,0" transform="translate(-636.512 -543.057)" fill="#263338"/>
      <path id="Path_1107" data-name="Path 1107" d="M659.38,546.5c.052.052-.052.156-.156.364a3.091,3.091,0,0,0-.156.364c-.052,0-.052-.208.052-.416a.867.867,0,0,1,.26-.312" transform="translate(-641.811 -543.173)" fill="#263338"/>
      <path id="Path_1108" data-name="Path 1108" d="M661.107,544.3c.052.052-.052.156-.208.312-.156.1-.26.208-.312.156s.052-.156.208-.312a.8.8,0,0,1,.312-.156" transform="translate(-642.55 -542.117)" fill="#263338"/>
      <path id="Path_1109" data-name="Path 1109" d="M663.416,543.311c0,.052-.156.052-.364.1s-.312.156-.364.1c-.052,0,.052-.208.312-.26.26-.1.468,0,.416.052" transform="translate(-643.559 -541.596)" fill="#263338"/>
      <path id="Path_1110" data-name="Path 1110" d="M665.664,542.864q0,.078-.156.156c-.1.052-.208.052-.208,0s.052-.1.156-.156.208-.052.208,0" transform="translate(-644.819 -541.409)" fill="#263338"/>
    </g>
  </g>
</svg>
