<svg xmlns="http://www.w3.org/2000/svg" width="54.99" height="79.985" viewBox="0 0 54.99 79.985">
  <g id="pin_2_" data-name="pin (2)" transform="translate(-79.968 0)">
    <path id="Path_7" data-name="Path 7" d="M131.138,13.7A27.137,27.137,0,0,0,108.078.006c-.409-.008-.821-.008-1.23,0A27.138,27.138,0,0,0,83.787,13.7a27.85,27.85,0,0,0-.363,27.514l19.831,36.3.027.048a4.82,4.82,0,0,0,8.362,0l.027-.048,19.831-36.3a27.851,27.851,0,0,0-.363-27.514ZM107.462,36.243a11.248,11.248,0,1,1,11.246-11.248A11.26,11.26,0,0,1,107.462,36.243Z" transform="translate(0)" fill="#029a63"/>
  </g>
</svg>
