<svg id="business_black_24dp" xmlns="http://www.w3.org/2000/svg" width="80" height="80" viewBox="0 0 80 80">
  <path id="Path_80" data-name="Path 80" d="M0,0H80V80H0Z" fill="none"/>
  <path id="Path_81" data-name="Path 81" d="M35.3,16.31V3H2V62.9H68.6V16.31ZM15.319,56.24H8.66V49.585h6.66Zm0-13.31H8.66V36.275h6.66Zm0-13.31H8.66V22.965h6.66Zm0-13.31H8.66V9.655h6.66ZM28.639,56.24h-6.66V49.585h6.66Zm0-13.31h-6.66V36.275h6.66Zm0-13.31h-6.66V22.965h6.66Zm0-13.31h-6.66V9.655h6.66Zm33.3,39.93H35.3V49.585h6.66V42.93H35.3V36.275h6.66V29.62H35.3V22.965H61.937Zm-6.66-26.62h-6.66v6.655h6.66Zm0,13.31h-6.66v6.655h6.66Z" transform="translate(4.702 7.052)" fill="#029a63"/>
</svg>
